<?xml version="1.0" encoding="utf-8"?>
<!-- Generator: Adobe Illustrator 19.1.0, SVG Export Plug-In . SVG Version: 6.00 Build 0)  -->
<svg version="1.1" id="Layer_1" xmlns="http://www.w3.org/2000/svg" xmlns:xlink="http://www.w3.org/1999/xlink" x="0px" y="0px"
	 viewBox="0 0 543 134" style="enable-background:new 0 0 543 134;" xml:space="preserve">
<style type="text/css">
	.st0{fill:#3300CC;}
	.st1{fill:#000066;}
	.st2{fill:none;stroke:#000066;stroke-width:2;stroke-miterlimit:1;}
	.st3{fill:none;}
	.st4{fill:#C9272A;}
</style>
<path class="st0" d="M29.1,72.9l11.5-8.1c0,0-3.2-7,2.2-18.8c0,0,4.8-10.9,18.5-13.2c0,0,9.2-1.5,17.1,3.6L60.2,49.9l0,11.8
	l43.4-32.6c0,0-7.5-11.3-21.3-16.4C68.5,7.5,52.3,8,38.1,18C23.8,28,19.4,40.9,17.7,49.6c-1.7,8.7-0.2,14.9-0.2,14.9L29.1,72.9z"/>
<path class="st1" d="M101.5,42.8l-11.6,8.1c0,0,3.2,7-2.2,18.8c0,0-4.8,10.9-18.5,13.2c0,0-9.2,1.5-17.1-3.6l18.3-13.6l0-11.8
	L26.8,86.4c0,0,7.4,11.3,21.3,16.5c13.8,5.2,30,4.7,44.3-5.3c14.3-10,18.7-22.9,20.4-31.5c1.7-8.7,0.2-14.9,0.2-14.9L101.5,42.8z"/>
<circle class="st2" cx="64.8" cy="57.6" r="53.4"/>
<g>
	<rect x="133" y="29.2" class="st3" width="409" height="74"/>
	<path class="st1" d="M172.9,30v5.5h-19.5v16.4h16.4v5.5h-16.4v21.5h22.8v5.5h-38.5V30H172.9z"/>
	<path class="st1" d="M196.5,58.4v10.5H177V58.4H196.5z"/>
	<path class="st1" d="M201.8,84.3V30h23.4c6.1,0,10.9,1.3,14.6,3.8c3.6,2.6,5.5,6,5.5,10.3c0,6.6-3.9,10.9-11.7,12.9
		c4,1.5,6.6,3.1,7.8,4.9c1.2,1.8,2,5.2,2.4,10.3c0.5,6.1,1.5,10.1,3.1,12.1h-17.1c-1.1-2.5-1.6-5.7-1.6-9.4l-0.1-3.2l-0.1-4.1
		c0-6.3-2.5-9.4-7.6-9.4h-2.7v26.1H201.8z M217.6,53.8h3.2c6,0,9-3.1,9-9.4c0-6.2-3-9.4-9-9.4h-3.2V53.8z"/>
	<path class="st1" d="M252.8,84.3V44.3c4.5,0,9.4-0.4,14.5-1.1v41.1H252.8z M260.2,28.7c4.5,0,6.8,1.8,6.8,5.3s-2.3,5.3-6.8,5.3
		c-4.5,0-6.8-1.8-6.8-5.3S255.6,28.7,260.2,28.7z"/>
	<path class="st1" d="M313.4,84.3h-14.5V54.9c0-3-0.8-4.5-2.5-4.5c-1.7,0-3.2,1.2-4.4,3.6c-1.2,2.4-1.9,5.2-1.9,8.4v22h-14.5V44.2
		c5,0,9.8-0.3,14.5-1v7.5c3.6-5,8-7.5,13.2-7.5c6.7,0,10.1,3.4,10.1,10.3V84.3z"/>
	<path class="st1" d="M347.7,44.6c6.8,2.9,10.1,7.1,10.1,12.6c0,3.6-1.7,6.7-5.1,9.3c-3.4,2.6-7.5,3.9-12.3,3.9
		c-1.9,0-4.4-0.2-7.5-0.7c-1.8,1.1-2.7,2.1-2.7,3.2c0,1.5,1.1,2.2,3.4,2.2c0.6,0,1.8-0.1,3.5-0.2c4.5-0.3,7.7-0.4,9.8-0.4
		c9.7,0,14.5,3.7,14.5,11c0,8.9-8,13.3-24,13.3c-11.9,0-17.9-2.5-17.9-7.5c0-2.9,2.4-4.9,7.2-5.9c-5.1-1.4-7.7-3.6-7.7-6.7
		c0-3.9,3.1-7.3,9.2-10.3c-5.4-2.2-8.1-5.9-8.1-11.1c0-4,1.6-7.3,4.9-10c3.3-2.7,7.3-4,12.1-4c1.6,0,3.8,0.2,6.5,0.5
		c-0.1-0.9-0.2-1.7-0.2-2.2c0-5.3,2.7-7.9,8.2-7.9c4.4,0,6.6,1.8,6.6,5.5c0,2.8-1.3,4.2-3.9,4.2c-0.9,0-1.9-0.3-3.1-0.9
		c-0.7-0.4-1.3-0.6-1.7-0.6C348.4,41.8,347.7,42.7,347.7,44.6z M338.4,87c-6.8,0-10.1,1.3-10.1,3.9c0,2.6,3.3,3.9,9.8,3.9
		c7.6,0,11.4-1.5,11.4-4.4C349.5,88.1,345.8,87,338.4,87z M338.8,47.1c-2.7,0-4.1,3.4-4.1,10.1c0,6.2,1.4,9.3,4.2,9.3
		c2.6,0,3.9-2.7,3.9-8.2C342.8,50.8,341.5,47.1,338.8,47.1z"/>
	<path class="st1" d="M367.7,95.5v-5.1c2.3-1.4,3.8-3.4,4.5-6c-4.2,0-6.4-2.3-6.4-6.8c0-4.7,2.3-7,7-7c4.6,0,6.9,2.8,6.9,8.3
		C379.9,87.5,375.8,93,367.7,95.5z"/>
	<path class="st1" d="M425.3,30v54.3h-15.8V30H425.3z"/>
	<path class="st1" d="M472,84.3h-14.5V54.9c0-3-0.8-4.5-2.5-4.5c-1.7,0-3.2,1.2-4.4,3.6c-1.2,2.4-1.9,5.2-1.9,8.4v22h-14.5V44.2
		c5,0,9.8-0.3,14.5-1v7.5c3.6-5,8-7.5,13.2-7.5c6.7,0,10.1,3.4,10.1,10.3V84.3z"/>
	<path class="st1" d="M508.6,66.4l6.1,1.9l0,1.6c0,10.2-5.6,15.3-16.7,15.3c-13.2,0-19.8-6.7-19.8-20.1c0-6.7,1.9-12.1,5.8-16.1
		c3.8-4,9-6,15.5-6c9.3,0,14,4.2,14,12.7l-6.8,3.3l0.1-3.8c0-5.7-1.9-8.6-5.8-8.6c-5.1,0-7.6,5.6-7.6,16.9c0,7,0.5,11.7,1.6,14.3
		s3.1,3.9,6,3.9c5.4,0,8.1-3.5,8.1-10.5C509.1,70.2,508.9,68.6,508.6,66.4z"/>
	<path class="st1" d="M527.5,71.1c4.7,0,7,2.3,7,7c0,4.7-2.3,7-7,7c-4.7,0-7-2.3-7-7C520.5,73.4,522.8,71.1,527.5,71.1z"/>
</g>
<g>
	<g>
		<path class="st4" d="M142.8,124.4l-1.4-23.3h3.2l0.5,11.5c0,0.5,0.1,2,0.2,4.5c0,0.7,0,1.2,0,1.4c0,0.2,0,0.7,0,1.6
			c1.3-2.6,2.2-4.5,2.8-5.6l7.1-13.4h3.2l0.8,13.6c0.1,1.6,0.1,3.4,0.2,5.6c0.2-0.5,0.5-1.3,1-2.4c0.8-1.7,1.3-3,1.7-3.7l6.6-13.1
			h3.2L160,124.4h-3.3l-0.8-14.1c-0.1-1.2-0.1-2.7-0.2-4.4c-0.6,1.5-1.2,2.6-1.6,3.4l-8.1,15.1H142.8z"/>
		<path class="st4" d="M180.8,118.6l2.8,0.3c-0.4,1.4-1.3,2.7-2.8,4c-1.4,1.2-3.2,1.9-5.2,1.9c-1.2,0-2.4-0.3-3.4-0.9
			c-1-0.6-1.8-1.4-2.4-2.5c-0.5-1.1-0.8-2.4-0.8-3.8c0-1.8,0.4-3.6,1.3-5.4s2-3,3.3-3.9c1.4-0.8,2.8-1.3,4.4-1.3
			c2,0,3.6,0.6,4.8,1.9c1.2,1.2,1.8,3,1.8,5.1c0,0.8-0.1,1.7-0.2,2.5H172c0,0.3-0.1,0.6-0.1,0.9c0,1.6,0.4,2.8,1.1,3.6
			c0.7,0.8,1.6,1.2,2.7,1.2c1,0,2-0.3,2.9-1S180.3,119.9,180.8,118.6z M172.5,114.5h9.5c0-0.3,0-0.5,0-0.6c0-1.4-0.4-2.5-1.1-3.3
			c-0.7-0.8-1.6-1.2-2.8-1.2c-1.2,0-2.3,0.4-3.4,1.3S173,112.8,172.5,114.5z"/>
		<path class="st4" d="M195.6,124.4l3.5-16.9h2.9l-0.6,2.8c1.1-1.2,2-2,2.9-2.5c0.8-0.5,1.8-0.7,2.7-0.7c1,0,1.9,0.3,2.6,0.8
			c0.7,0.6,1.2,1.3,1.4,2.3c0.9-1.1,1.8-1.8,2.7-2.4c0.9-0.5,1.9-0.8,3-0.8c1.4,0,2.5,0.3,3.2,1c0.7,0.7,1.1,1.6,1.1,2.8
			c0,0.5-0.1,1.4-0.4,2.6l-2.3,10.9h-2.9l2.3-11.1c0.2-0.9,0.3-1.6,0.3-2c0-0.5-0.2-1-0.5-1.3c-0.3-0.3-0.8-0.5-1.5-0.5
			c-0.9,0-1.7,0.3-2.6,0.8c-0.9,0.5-1.6,1.2-2.1,2c-0.5,0.8-0.9,2.1-1.3,3.9l-1.7,8.2h-2.9l2.4-11.4c0.2-0.8,0.3-1.3,0.3-1.7
			c0-0.6-0.2-1-0.5-1.3c-0.3-0.3-0.8-0.5-1.3-0.5c-0.8,0-1.7,0.3-2.6,0.8c-0.9,0.5-1.6,1.2-2.2,2.2c-0.6,0.9-1,2.2-1.4,4l-1.7,8
			H195.6z"/>
		<path class="st4" d="M234,122.3c-1,0.9-2,1.5-2.9,1.9c-0.9,0.4-1.9,0.6-3,0.6c-1.6,0-2.8-0.5-3.8-1.4c-1-0.9-1.4-2.1-1.4-3.5
			c0-0.9,0.2-1.8,0.6-2.5c0.4-0.7,1-1.3,1.7-1.7c0.7-0.4,1.6-0.8,2.6-0.9c0.6-0.1,1.9-0.2,3.7-0.3c1.8-0.1,3.1-0.3,3.9-0.6
			c0.2-0.8,0.3-1.4,0.3-2c0-0.7-0.2-1.2-0.7-1.6c-0.7-0.5-1.6-0.8-2.9-0.8c-1.2,0-2.2,0.3-3,0.8s-1.3,1.3-1.7,2.3l-2.9-0.3
			c0.6-1.7,1.5-3,2.8-3.8c1.3-0.9,2.9-1.3,4.9-1.3c2.1,0,3.7,0.5,5,1.5c0.9,0.7,1.4,1.7,1.4,2.9c0,0.9-0.1,1.9-0.4,3.1l-0.9,4.2
			c-0.3,1.3-0.4,2.4-0.4,3.3c0,0.5,0.1,1.3,0.3,2.3h-2.9C234.2,123.8,234.1,123.1,234,122.3z M235.1,115.8c-0.4,0.2-0.8,0.3-1.3,0.4
			c-0.5,0.1-1.2,0.2-2.3,0.3c-1.7,0.1-2.9,0.3-3.5,0.6c-0.7,0.2-1.2,0.6-1.6,1.1c-0.3,0.5-0.5,1-0.5,1.7c0,0.8,0.3,1.5,0.8,2
			c0.6,0.5,1.3,0.8,2.4,0.8c1,0,1.9-0.3,2.7-0.8c0.9-0.5,1.6-1.2,2.1-2.1S234.8,117.5,235.1,115.8z"/>
		<path class="st4" d="M240.8,124.4l4.9-23.3h2.9l-3,14.4l8.4-8h3.8l-7.2,6.3l4.3,10.6h-3.1l-3.4-8.6l-3.5,3l-1.2,5.6H240.8z"/>
		<path class="st4" d="M269.3,118.6l2.8,0.3c-0.4,1.4-1.3,2.7-2.8,4c-1.4,1.2-3.2,1.9-5.2,1.9c-1.2,0-2.4-0.3-3.4-0.9
			c-1-0.6-1.8-1.4-2.4-2.5c-0.5-1.1-0.8-2.4-0.8-3.8c0-1.8,0.4-3.6,1.3-5.4s2-3,3.3-3.9c1.4-0.8,2.8-1.3,4.4-1.3
			c2,0,3.6,0.6,4.8,1.9c1.2,1.2,1.8,3,1.8,5.1c0,0.8-0.1,1.7-0.2,2.5h-12.4c0,0.3-0.1,0.6-0.1,0.9c0,1.6,0.4,2.8,1.1,3.6
			c0.7,0.8,1.6,1.2,2.7,1.2c1,0,2-0.3,2.9-1S268.8,119.9,269.3,118.6z M261,114.5h9.5c0-0.3,0-0.5,0-0.6c0-1.4-0.4-2.5-1.1-3.3
			c-0.7-0.8-1.6-1.2-2.8-1.2c-1.2,0-2.3,0.4-3.4,1.3S261.5,112.8,261,114.5z"/>
		<path class="st4" d="M295.7,118.2l2.9,0.3c-0.7,2.1-1.7,3.7-3.1,4.7s-2.8,1.5-4.5,1.5c-1.8,0-3.3-0.6-4.5-1.8s-1.7-2.8-1.7-5
			c0-1.8,0.4-3.7,1.1-5.4s1.8-3.1,3.1-4.1c1.4-0.9,2.9-1.4,4.7-1.4c1.8,0,3.2,0.5,4.3,1.5c1.1,1,1.6,2.4,1.6,4.1l-2.8,0.2
			c0-1.1-0.3-1.9-0.9-2.5c-0.6-0.6-1.4-0.9-2.4-0.9c-1.2,0-2.2,0.4-3,1.1c-0.8,0.7-1.5,1.8-2,3.3c-0.5,1.5-0.7,2.9-0.7,4.3
			c0,1.4,0.3,2.5,1,3.2s1.4,1.1,2.3,1.1c0.9,0,1.8-0.4,2.7-1.1C294.5,120.8,295.2,119.7,295.7,118.2z"/>
		<path class="st4" d="M300.8,118c0-3.3,1-6,2.9-8.2c1.6-1.8,3.7-2.7,6.3-2.7c2,0,3.7,0.6,4.9,1.9s1.9,3,1.9,5.1
			c0,1.9-0.4,3.7-1.2,5.4c-0.8,1.7-1.9,2.9-3.3,3.8c-1.4,0.9-3,1.3-4.6,1.3c-1.3,0-2.5-0.3-3.6-0.8c-1.1-0.6-1.9-1.4-2.5-2.4
			C301.1,120.5,300.8,119.3,300.8,118z M303.7,117.7c0,1.6,0.4,2.8,1.1,3.6c0.8,0.8,1.7,1.2,2.9,1.2c0.6,0,1.2-0.1,1.8-0.4
			c0.6-0.2,1.2-0.6,1.7-1.1c0.5-0.5,1-1.1,1.3-1.7c0.4-0.7,0.7-1.4,0.9-2.1c0.3-1,0.5-2.1,0.5-3c0-1.5-0.4-2.7-1.2-3.5
			c-0.8-0.8-1.7-1.3-2.9-1.3c-0.9,0-1.7,0.2-2.5,0.6c-0.7,0.4-1.4,1.1-2,1.9s-1,1.8-1.3,2.9C303.8,115.9,303.7,116.8,303.7,117.7z"
			/>
		<path class="st4" d="M318.4,124.4l3.5-16.9h2.9l-0.6,2.8c1.1-1.2,2-2,2.9-2.5c0.8-0.5,1.8-0.7,2.7-0.7c1,0,1.9,0.3,2.6,0.8
			c0.7,0.6,1.2,1.3,1.4,2.3c0.9-1.1,1.8-1.8,2.7-2.4c0.9-0.5,1.9-0.8,3-0.8c1.4,0,2.5,0.3,3.2,1c0.7,0.7,1.1,1.6,1.1,2.8
			c0,0.5-0.1,1.4-0.4,2.6l-2.3,10.9h-2.9l2.3-11.1c0.2-0.9,0.3-1.6,0.3-2c0-0.5-0.2-1-0.5-1.3c-0.3-0.3-0.8-0.5-1.5-0.5
			c-0.9,0-1.7,0.3-2.6,0.8c-0.9,0.5-1.6,1.2-2.1,2c-0.5,0.8-0.9,2.1-1.3,3.9l-1.7,8.2h-2.9l2.4-11.4c0.2-0.8,0.3-1.3,0.3-1.7
			c0-0.6-0.2-1-0.5-1.3c-0.3-0.3-0.8-0.5-1.3-0.5c-0.8,0-1.7,0.3-2.6,0.8c-0.9,0.5-1.6,1.2-2.2,2.2s-1,2.2-1.4,4l-1.7,8H318.4z"/>
		<path class="st4" d="M344.1,130.8l4.9-23.3h2.6l-0.5,2.3c1-1,1.9-1.7,2.6-2.1c0.8-0.4,1.6-0.6,2.5-0.6c1.6,0,2.9,0.6,4,1.8
			c1.1,1.2,1.6,2.8,1.6,5c0,1.8-0.3,3.4-0.9,4.8c-0.6,1.4-1.3,2.6-2.1,3.5c-0.8,0.9-1.7,1.5-2.6,1.9c-0.9,0.4-1.8,0.6-2.7,0.6
			c-2,0-3.6-1-4.7-3.1l-1.9,9.2H344.1z M349.7,117.5c0,1.3,0.1,2.1,0.3,2.6c0.3,0.7,0.7,1.2,1.3,1.7c0.6,0.4,1.3,0.6,2.1,0.6
			c1.7,0,3-0.9,4-2.8s1.5-3.8,1.5-5.7c0-1.4-0.3-2.5-1-3.3c-0.7-0.8-1.5-1.2-2.5-1.2c-0.7,0-1.4,0.2-2,0.6c-0.6,0.4-1.2,1-1.7,1.7
			c-0.5,0.8-1,1.7-1.3,2.8C349.9,115.7,349.7,116.7,349.7,117.5z"/>
		<path class="st4" d="M375.1,121.3c-2,2.3-4.1,3.4-6.2,3.4c-1.3,0-2.4-0.4-3.1-1.1c-0.8-0.7-1.2-1.7-1.2-2.7c0-0.7,0.2-1.9,0.5-3.6
			l2-9.7h2.9l-2.3,10.8c-0.2,0.9-0.3,1.6-0.3,2.1c0,0.6,0.2,1.1,0.6,1.5c0.4,0.4,1,0.5,1.7,0.5c0.8,0,1.6-0.2,2.4-0.6
			c0.8-0.4,1.4-0.9,2-1.6c0.6-0.7,1-1.5,1.4-2.4c0.2-0.6,0.5-1.6,0.8-3.1l1.5-7.3h2.9l-3.5,16.9h-2.7L375.1,121.3z"/>
		<path class="st4" d="M388.3,122l-0.5,2.3c-0.7,0.2-1.4,0.3-2,0.3c-1.1,0-2.1-0.3-2.7-0.8c-0.5-0.4-0.8-1-0.8-1.7
			c0-0.4,0.1-1.2,0.4-2.6l2-9.8h-2.3l0.5-2.2h2.3l0.9-4.1l3.3-2l-1.3,6.1h2.8l-0.5,2.2h-2.8l-2,9.3c-0.2,1.2-0.4,1.9-0.4,2.1
			c0,0.3,0.1,0.6,0.3,0.8c0.2,0.2,0.5,0.3,1,0.3C387.3,122.2,387.8,122.2,388.3,122z"/>
		<path class="st4" d="M403,118.6l2.8,0.3c-0.4,1.4-1.3,2.7-2.8,4c-1.4,1.2-3.2,1.9-5.2,1.9c-1.2,0-2.4-0.3-3.4-0.9
			c-1-0.6-1.8-1.4-2.4-2.5s-0.8-2.4-0.8-3.8c0-1.8,0.4-3.6,1.3-5.4c0.9-1.7,2-3,3.3-3.9c1.4-0.8,2.8-1.3,4.4-1.3
			c2,0,3.6,0.6,4.8,1.9c1.2,1.2,1.8,3,1.8,5.1c0,0.8-0.1,1.7-0.2,2.5h-12.4c0,0.3-0.1,0.6-0.1,0.9c0,1.6,0.4,2.8,1.1,3.6
			c0.7,0.8,1.6,1.2,2.7,1.2c1,0,2-0.3,2.9-1S402.5,119.9,403,118.6z M394.7,114.5h9.5c0-0.3,0-0.5,0-0.6c0-1.4-0.4-2.5-1.1-3.3
			c-0.7-0.8-1.6-1.2-2.8-1.2c-1.2,0-2.3,0.4-3.4,1.3S395.2,112.8,394.7,114.5z"/>
		<path class="st4" d="M408.7,124.4l3.5-16.9h2.5l-0.7,3.4c0.9-1.3,1.7-2.3,2.5-2.9c0.8-0.6,1.7-0.9,2.5-0.9c0.6,0,1.3,0.2,2.1,0.6
			l-1.2,2.7c-0.5-0.4-1-0.5-1.6-0.5c-1,0-2,0.6-3.1,1.7c-1.1,1.1-1.9,3.1-2.5,6l-1.4,6.8H408.7z"/>
		<path class="st4" d="M419.8,118.6l2.9-0.2c0,0.8,0.1,1.5,0.4,2.1s0.7,1.1,1.4,1.4c0.7,0.4,1.5,0.6,2.4,0.6c1.3,0,2.2-0.3,2.9-0.8
			s1-1.1,1-1.8c0-0.5-0.2-1-0.6-1.4c-0.4-0.4-1.3-1-2.9-1.6c-1.5-0.7-2.5-1.1-2.9-1.4c-0.7-0.4-1.2-0.9-1.6-1.5s-0.5-1.3-0.5-2
			c0-1.3,0.5-2.5,1.6-3.4c1.1-1,2.5-1.4,4.4-1.4c2.1,0,3.7,0.5,4.8,1.5c1.1,1,1.7,2.3,1.7,3.9l-2.8,0.2c0-1-0.4-1.8-1.1-2.4
			c-0.7-0.6-1.6-0.9-2.9-0.9c-1,0-1.8,0.2-2.3,0.7c-0.6,0.5-0.8,0.9-0.8,1.5c0,0.5,0.2,1,0.7,1.4c0.3,0.3,1.1,0.7,2.5,1.3
			c2.2,1,3.6,1.7,4.2,2.3c0.9,0.9,1.4,1.9,1.4,3.2c0,0.8-0.3,1.7-0.8,2.5c-0.5,0.8-1.3,1.4-2.3,1.9c-1.1,0.5-2.3,0.7-3.7,0.7
			c-1.9,0-3.6-0.5-5-1.4C420.4,122.3,419.7,120.8,419.8,118.6z"/>
		<path class="st4" d="M451.5,122l-0.5,2.3c-0.7,0.2-1.4,0.3-2,0.3c-1.1,0-2.1-0.3-2.7-0.8c-0.5-0.4-0.8-1-0.8-1.7
			c0-0.4,0.1-1.2,0.4-2.6l2-9.8h-2.3l0.5-2.2h2.3l0.9-4.1l3.3-2l-1.3,6.1h2.8l-0.5,2.2h-2.8l-2,9.3c-0.2,1.2-0.4,1.9-0.4,2.1
			c0,0.3,0.1,0.6,0.3,0.8c0.2,0.2,0.5,0.3,1,0.3C450.5,122.2,451,122.2,451.5,122z"/>
		<path class="st4" d="M453.9,124.4l4.9-23.3h2.9l-1.9,8.9c1.1-1,2.1-1.8,3-2.2c0.9-0.4,1.9-0.7,2.8-0.7c1.4,0,2.5,0.4,3.3,1.1
			c0.8,0.7,1.2,1.7,1.2,2.9c0,0.6-0.2,1.7-0.5,3.3l-2.1,10h-2.9l2.1-10.2c0.3-1.5,0.5-2.4,0.5-2.8c0-0.5-0.2-1-0.6-1.3
			s-0.9-0.5-1.7-0.5c-1,0-2,0.3-3,0.8c-0.9,0.5-1.7,1.3-2.2,2.2s-1,2.5-1.5,4.6l-1.5,7.2H453.9z"/>
		<path class="st4" d="M471.8,124.4l3.5-16.9h2.9l-3.5,16.9H471.8z M476,104.4l0.7-3.3h2.9l-0.7,3.3H476z"/>
		<path class="st4" d="M479.2,124.4l3.5-16.9h2.6l-0.6,2.9c1.1-1.2,2.2-2,3.2-2.5c1-0.5,2-0.8,3-0.8c1.4,0,2.4,0.4,3.2,1.1
			c0.8,0.7,1.2,1.7,1.2,3c0,0.6-0.1,1.6-0.4,3l-2.1,10.2h-2.9l2.2-10.7c0.2-1,0.3-1.8,0.3-2.3c0-0.6-0.2-1-0.6-1.4s-0.9-0.5-1.7-0.5
			c-1.5,0-2.8,0.5-3.9,1.6c-1.1,1.1-2,2.9-2.5,5.4l-1.6,7.8H479.2z"/>
		<path class="st4" d="M497.3,124.4l4.9-23.3h2.9l-3,14.4l8.4-8h3.8l-7.2,6.3l4.3,10.6h-3.1l-3.4-8.6l-3.5,3l-1.2,5.6H497.3z"/>
		<path class="st4" d="M514.3,124.4l0.7-3.3h3.3l-0.7,3.3H514.3z"/>
		<path class="st4" d="M523.3,124.4l0.7-3.3h3.3l-0.7,3.3H523.3z"/>
		<path class="st4" d="M532.3,124.4l0.7-3.3h3.3l-0.7,3.3H532.3z"/>
	</g>
</g>
<g>
</g>
<g>
</g>
<g>
</g>
<g>
</g>
<g>
</g>
<g>
</g>
<g>
</g>
<g>
</g>
<g>
</g>
<g>
</g>
<g>
</g>
<g>
</g>
</svg>
