<?xml version="1.0" standalone="no"?>
<!DOCTYPE svg PUBLIC "-//W3C//DTD SVG 20010904//EN"
 "http://www.w3.org/TR/2001/REC-SVG-20010904/DTD/svg10.dtd">
<svg version="1.0" xmlns="http://www.w3.org/2000/svg"
 width="626.000000pt" height="626.000000pt" viewBox="0 0 626.000000 626.000000"
 preserveAspectRatio="xMidYMid meet">
<metadata>
Created by potrace 1.16, written by Peter Selinger 2001-2019
</metadata>
<g transform="translate(0.000000,626.000000) scale(0.100000,-0.100000)"
fill="#000000" stroke="none">
<path d="M3203 5339 c-29 -11 -66 -34 -83 -51 -56 -56 -64 -81 -71 -238 -9
-197 -25 -240 -170 -456 -234 -351 -292 -417 -401 -453 -76 -25 -137 -73 -176
-139 l-27 -47 -3 -868 c-2 -843 -2 -869 17 -912 31 -71 67 -110 134 -146 l62
-34 770 -3 c509 -2 793 1 839 8 138 21 242 94 300 210 42 84 52 156 37 246
l-12 67 49 51 c76 77 105 143 110 247 3 51 0 101 -7 122 -12 34 -11 36 42 88
93 94 131 211 109 339 l-12 69 48 48 c27 27 61 75 78 108 26 55 29 69 29 165
0 99 -2 110 -32 171 -40 81 -102 140 -191 182 l-67 32 -417 3 c-230 2 -418 4
-418 6 0 1 11 40 25 87 75 248 104 533 71 699 -42 216 -168 353 -371 405 -84
21 -198 19 -262 -6z m289 -148 c103 -40 180 -139 207 -269 35 -165 -3 -445
-101 -750 -16 -52 -27 -104 -24 -116 11 -44 32 -46 509 -46 l452 0 50 -24 c95
-45 147 -125 147 -226 0 -111 -74 -206 -184 -237 l-57 -16 29 -34 c90 -102 92
-233 6 -331 -34 -39 -116 -82 -158 -82 -37 0 -35 -9 7 -50 105 -102 80 -294
-47 -373 -26 -16 -68 -32 -93 -34 -51 -6 -56 -15 -20 -39 14 -9 38 -38 53 -63
23 -38 27 -58 27 -116 -1 -106 -44 -174 -145 -227 l-45 -23 -783 -3 c-760 -3
-784 -2 -827 17 -27 12 -52 33 -65 53 -20 32 -20 47 -20 877 l0 843 38 37 c23
23 58 44 91 55 133 43 198 115 457 506 113 170 133 207 159 290 26 81 30 112
31 216 1 134 9 158 57 180 47 21 177 13 249 -15z"/>
<path d="M1206 4085 c-84 -30 -140 -97 -156 -187 -7 -37 -10 -349 -8 -905 3
-848 3 -848 25 -888 28 -52 78 -100 125 -119 55 -24 701 -24 756 0 49 20 100
70 123 119 18 38 19 84 19 928 0 722 -3 894 -13 920 -20 47 -64 95 -111 120
-40 21 -52 22 -381 24 -274 2 -348 0 -379 -12z m588 -1649 c90 -37 113 -157
45 -226 -61 -61 -152 -59 -208 5 -43 49 -49 93 -20 152 37 74 107 101 183 69z"/>
</g>
</svg>
